<?xml version='1.0' encoding='utf-8'?>
<svg xmlns="http://www.w3.org/2000/svg" id="svg2814" version="1.1" viewBox="0 0 507.99999 285.75001" height="1080" width="1920"> <defs id="defs2808"/> <metadata id="metadata2811"> </metadata> <g transform="translate(0,-11.249983)" id="layer1"> <g id="g6897" transform="translate(6201.6929,-12156.867)"> <rect style="color:#000000;clip-rule:nonzero;display:inline;overflow:visible;visibility:visible;opacity:1;isolation:auto;mix-blend-mode:normal;color-interpolation:sRGB;color-interpolation-filters:linearRGB;solid-color:#000000;solid-opacity:1;fill:#27ae61;fill-opacity:1;fill-rule:nonzero;stroke:none;stroke-width:0.079375;stroke-linecap:round;stroke-linejoin:round;stroke-miterlimit:4;stroke-dasharray:none;stroke-dashoffset:0;stroke-opacity:1;color-rendering:auto;image-rendering:auto;shape-rendering:auto;text-rendering:auto;enable-background:accumulate" id="rect3089" width="508" height="285.75" x="-6201.6929" y="12168.117"/> <path style="opacity:0.1;fill:#000000;fill-rule:evenodd;stroke:none;stroke-width:0.26458332px;stroke-linecap:butt;stroke-linejoin:miter;stroke-opacity:1" d="m -5919.7038,12247.461 -27.9864,135.993 70.4128,70.413 h 183.5851 v -75.918 z" id="path3091"/> <path id="path3093" d="m -5946.6761,12238.541 c -3.2225,-0.07 -6.4437,0.187 -9.6155,0.761 -25.1529,4.551 -42.407,27.908 -39.364,53.288 0.7708,6.334 2.7888,12.453 5.9377,18.003 v 0 l 0.3423,0.657 0.028,0.05 41.6569,72.155 42.0304,-72.862 v 0 c 4.105,-7.244 6.2677,-15.427 6.2782,-23.754 l -1.369,-11.42 c -5.178,-21.283 -24.0268,-36.418 -45.9254,-36.878 z" style="color:#000000;clip-rule:nonzero;display:inline;overflow:visible;visibility:visible;opacity:1;isolation:auto;mix-blend-mode:normal;color-interpolation:sRGB;color-interpolation-filters:linearRGB;solid-color:#000000;solid-opacity:1;fill:#ffffff;fill-opacity:1;fill-rule:nonzero;stroke:none;stroke-width:9.66173649;stroke-linecap:round;stroke-linejoin:round;stroke-miterlimit:4;stroke-dasharray:none;stroke-dashoffset:0;stroke-opacity:1;color-rendering:auto;image-rendering:auto;shape-rendering:auto;text-rendering:auto;enable-background:accumulate"/> <path style="color:#000000;clip-rule:nonzero;display:inline;overflow:visible;visibility:visible;opacity:1;isolation:auto;mix-blend-mode:normal;color-interpolation:sRGB;color-interpolation-filters:linearRGB;solid-color:#000000;solid-opacity:1;fill:#27ae61;fill-opacity:1;fill-rule:nonzero;stroke:none;stroke-width:4.96481895;stroke-linecap:round;stroke-linejoin:round;stroke-miterlimit:4;stroke-dasharray:none;stroke-dashoffset:0;stroke-opacity:1;color-rendering:auto;image-rendering:auto;shape-rendering:auto;text-rendering:auto;enable-background:accumulate" id="path3095" d="m -5922.9332,12286.585 a 24.824095,24.824095 0 0 1 -23.3439,24.78 24.824095,24.824095 0 0 1 -26.1278,-21.825 24.824095,24.824095 0 0 1 20.2279,-27.383 24.824095,24.824095 0 0 1 28.5402,18.56"/> </g> </g> </svg>